<svg xmlns="http://www.w3.org/2000/svg" width="24" height="24" fill="none" viewBox="0 0 54 54" class="upcoming-events-card__date-icon"><rect width="54" height="54" fill="#E9F2FB" rx="12"></rect><path fill="#d0531d" d="M21.75 13c.933 0 1.688.754 1.688 1.688v1.687h6.75v-1.688c0-.933.754-1.687 1.687-1.687s1.688.754 1.688 1.688v1.687h2.53a2.532 2.532 0 0 1 2.532 2.531v2.532H15v-2.532a2.532 2.532 0 0 1 2.531-2.531h2.532v-1.688c0-.933.754-1.687 1.687-1.687ZM15 23.125h23.625v14.344A2.532 2.532 0 0 1 36.094 40H17.53A2.532 2.532 0 0 1 15 37.469V23.125Zm3.375 4.219v1.687c0 .464.38.844.844.844h1.687c.464 0 .844-.38.844-.844v-1.687a.846.846 0 0 0-.844-.844H19.22a.846.846 0 0 0-.844.844Zm6.75 0v1.687c0 .464.38.844.844.844h1.687c.464 0 .844-.38.844-.844v-1.687a.846.846 0 0 0-.844-.844H25.97a.846.846 0 0 0-.844.844Zm7.594-.844a.846.846 0 0 0-.844.844v1.687c0 .464.38.844.844.844h1.687c.464 0 .844-.38.844-.844v-1.687a.846.846 0 0 0-.844-.844H32.72Zm-14.344 7.594v1.687c0 .464.38.844.844.844h1.687c.464 0 .844-.38.844-.844v-1.687a.846.846 0 0 0-.844-.844H19.22a.846.846 0 0 0-.844.844Zm7.594-.844a.846.846 0 0 0-.844.844v1.687c0 .464.38.844.844.844h1.687c.464 0 .844-.38.844-.844v-1.687a.846.846 0 0 0-.844-.844H25.97Zm5.906.844v1.687c0 .464.38.844.844.844h1.687c.464 0 .844-.38.844-.844v-1.687a.846.846 0 0 0-.844-.844H32.72a.846.846 0 0 0-.844.844Z"></path></svg>
