<svg xmlns="http://www.w3.org/2000/svg" width="24" height="24" fill="none" viewBox="0 0 54 54" class="upcoming-events-card__avenue-icon"><rect width="54" height="54" fill="#E9F2FB" rx="12"></rect><path fill="#d0531d" d="M27.404 39.393c2.713-3.394 8.899-11.62 8.899-16.242C36.303 17.547 31.756 13 26.15 13 20.547 13 16 17.547 16 23.151c0 4.621 6.186 12.848 8.898 16.242.65.81 1.856.81 2.506 0Zm-1.253-12.858a3.387 3.387 0 0 1-3.384-3.384 3.387 3.387 0 0 1 3.384-3.384 3.387 3.387 0 0 1 3.384 3.384 3.387 3.387 0 0 1-3.384 3.384Z"></path></svg>
